<?xml version="1.0" encoding="utf-8"?>
<!-- Generator: Adobe Illustrator 25.0.0, SVG Export Plug-In . SVG Version: 6.00 Build 0)  -->
<svg version="1.1" id="Layer_1" xmlns="http://www.w3.org/2000/svg" xmlns:xlink="http://www.w3.org/1999/xlink" x="0px" y="0px"
	 viewBox="0 0 216 216" style="enable-background:new 0 0 216 216;" xml:space="preserve">
<style type="text/css">
	.st0{fill:#FFFFFF;}
	.st1{enable-background:new    ;}
	.st2{fill:#2364AF;}
</style>
<path class="st0" d="M189.8,103c2.4-7.3,0.8-15.2-4.2-20.8c-5.7-6.3-14.8-8.6-23-5.7c-5.6-17-21.4-29.2-39.9-29.2
	c-14.6,0-27.5,7.6-35,19.1c-4.2-1.9-8.8-3-13.6-3C55.3,63.4,40,79.5,40,99.3c0,1,0,2,0.1,3c-1.6-0.2-3.2-0.3-4.9-0.3
	c-18.2,0-33,12.4-33,27.7c0,15.9,18,27.3,32.9,27.7c9.5,0.3,16.7-3.9,20.2-6.3c5.1,4,25.3,18.9,54.4,17.5
	c25.8-1.2,43-14.3,48.5-18.9c5.9,4.7,13.9,7.6,22.7,7.6c18.2,0,32.9-12.4,32.9-27.7C213.8,117,203.6,106.3,189.8,103z"/>
<g class="st1">
	<path class="st2" d="M100.3,123.1c2.3,7.3,4.2,10.6,8.4,10.6l-0.1,0.4H82.9l0.1-0.4c5.7,0,5.8-4.8,4.3-10L86,119h-9.6
		c-6.8,12.6-14,20.7-23.5,20.7c-7.8,0-14.3-4.3-14.3-12.4c0-7.3,6.3-11.8,12.6-11.8c6,0,12.4,3.5,12.4,9.8c0,4.2-3.2,7.6-8.1,7.6
		c-3.5,0-6.6-2.9-5.5-6.6c3-0.1,5.3-2.5,5.3-5.8c0-3.2-2.9-4.5-5.1-4.5c-4.4,0-9.1,4.7-9.1,11.2c0,7,4.6,11.9,12,11.9
		c15.9,0,25.8-26.2,36.4-50.5L100.3,123.1z M76.8,118.4h9.1l-3.3-11.8C80.6,110.8,78.7,114.8,76.8,118.4z"/>
	<path class="st2" d="M129.6,135.6c19.5,3.5,23.6-20.3,23.6-31.6c0-8-2-12.6-7.6-12.6c-3.5,0-5,1.8-6.1,8.7l-5.3,34.1h-18.9l0.1-0.4
		c6.5,0,7.1-3.5,8.2-10.7l3.2-21.1c1.2-8.2,10.3-10,15.2-10.2v-0.1c-7.8,0-14.5-6.1-22.2-6.1c-3.8,0-6.6,1.6-6.6,4.8
		c0,2.9,2.2,3.9,4.1,3.9c1.7,0,3.4-0.8,4.7-2.5c7.3,3.3,2.5,12.4-4.7,12.4c-4.6,0-9.2-3.5-9.2-8.9c0-5.8,4.8-10.3,11.5-10.3
		c7.9,0,15.4,6.2,22.8,6.2c1.4,0,2-0.8,2-1.6c0-1-1.1-2-2.8-0.9c-1.4-2.7,0.6-4.8,2.9-4.8c1.7,0,3.4,1,3.4,3.3
		c0,2.4-2.5,3.5-3.7,3.8c1-0.1,1.9-0.2,2.9-0.2c9.1,0,18.5,5.3,18.5,19.1c0,12.7-7.9,33.4-36,26.1L129.6,135.6z"/>
</g>
</svg>
