<?xml version="1.0" encoding="utf-8"?>
<!-- Generator: Adobe Illustrator 25.0.0, SVG Export Plug-In . SVG Version: 6.00 Build 0)  -->
<svg version="1.1" id="Layer_1" xmlns="http://www.w3.org/2000/svg" xmlns:xlink="http://www.w3.org/1999/xlink" x="0px" y="0px"
	 viewBox="0 0 126 36.2" style="enable-background:new 0 0 126 36.2;" xml:space="preserve">
<path d="M117.7,18.5c-0.7,0-1.4,0-2.1,0.1c-3.5-9.9-14.1-17-26.7-17c-10.7,0-20,5.2-24.7,12.8C61,10.8,56.3,8.5,51,8.5
	c-9.7,0-17.5,7.6-17.5,17.1c0,0.1,0,0.2,0,0.3c-3.1-0.8-6.6-1.3-10.3-1.3c-12.7,0-23,5.7-23.2,12.7h58.2H64h0.5h4.4H126V19.7
	C123.4,18.9,120.6,18.5,117.7,18.5z"/>
</svg>
