<?xml version="1.0" encoding="utf-8"?>
<!-- Generator: Adobe Illustrator 25.0.0, SVG Export Plug-In . SVG Version: 6.00 Build 0)  -->
<svg version="1.1" id="Layer_1" xmlns="http://www.w3.org/2000/svg" xmlns:xlink="http://www.w3.org/1999/xlink" x="0px" y="0px"
	 viewBox="0 0 108.2 122.9" style="enable-background:new 0 0 108.2 122.9;" xml:space="preserve">
<style type="text/css">
	.st0{fill:#231F20;}
</style>
<g>
	<path class="st0" d="M36.2,12.3v45.5c0,0,16,0,24.6-0.7c6.7-1.2,8-1.8,9.2-8.6l2.5-9.9h7.3l-1.2,21.6l0.7,22.1h-7.4l-1.8-8.6
		c-1.8-6.2-4.3-7.4-9.2-8c-6.2-0.7-24.6-0.7-24.6-0.7v38.1c0,7.3,3.7,10.5,12.3,10.5h25.8c8,0,16-0.7,20.9-12.3l6.7-14.8h6.2
		c-0.7,3.1-3.7,30.2-4.3,36.2c0,0-23.4-0.6-33.2-0.6H26.4L0,122.9v-6.7l8.6-1.9c6.2-1.2,8-3.1,8-8c0,0,0.6-16.6,0.6-44.3
		c0-27.6-0.6-44.2-0.6-44.2c0-5.5-1.8-6.7-8-8L0,8V1.2l25.8,0.5H75c9.8,0,26.4-1.8,26.4-1.8s-0.6,10.4-1.2,35h-6.7L91,26.4
		C88.5,15.3,84.8,9.8,78.1,9.8H39.4C36.2,9.8,36.2,10.4,36.2,12.3L36.2,12.3z"/>
</g>
</svg>
