<?xml version="1.0" encoding="utf-8"?>
<!-- Generator: Adobe Illustrator 25.2.0, SVG Export Plug-In . SVG Version: 6.00 Build 0)  -->
<svg version="1.1" id="Layer_1" xmlns="http://www.w3.org/2000/svg" xmlns:xlink="http://www.w3.org/1999/xlink" x="0px" y="0px"
	 viewBox="0 0 540 540" style="enable-background:new 0 0 540 540;" xml:space="preserve">
<style type="text/css">
	.st0{fill:#FEFEFE;}
	.st1{fill:#DDDDDD;}
	.st2{fill:#E0E0E0;}
</style>
<g class="heartBeat" id="Artboard_1">
	<g>
		<g>
			<path class="st0" d="M68.6,236.9c0-38.4,0-76.8-0.1-115.2c0-3,0.6-3.6,3.6-3.6c136.8,0.1,273.5,0.1,410.3,0c3,0,3.6,0.6,3.6,3.6
				c-0.1,111.8-0.1,223.5,0,335.3c0,3.7-1.4,3.5-4.1,3.5c-81.9-0.1-163.7,0-245.6,0c-0.5-1.2,0.2-2,1.1-2.7
				c12.5-4.9,24.7-10.6,36.7-16.8c30.9-15.8,61.9-31.6,90.6-51.3c10-6.9,18.9-15.2,28.9-22.1c2.1-1.4,4.2-2.7,6.6-3.4
				c1.6-0.4,3.2-1,4.5-2.1c11.7-10,25.1-18.1,32.7-32.4c2.8-5.3,7.4-9.3,11.8-13.5c5.1-4.9,8.7-10.8,11.6-17.3
				c4-9,8.7-17.6,12.8-26.5c5.6-12.2,10.3-24.8,9.9-38.3c-0.6-18.2-4.1-35.8-13.6-52c-4.6-7.9-8.8-15.5-17.4-19.8
				c-3.5-1.7-7-2.8-10.9-3c-13.6-0.6-26.9,1.6-40.1,3.8c-5.6,0.9-6.6,0.5-6.5-5.3c0.2-6.4-1.5-12.5-2.8-18.7
				c-0.8-3.9-2.4-7.5-5-10.7c-4.1-4.9-8.8-7.4-15.5-7.1c-9.3,0.5-18.7-0.4-27.9,0.3c-23.9,1.9-42.4,12.9-54.8,33.9
				c-13.2,22.4-19.2,47.3-25,72.2c-1.7,7.4-3.8,14.8-5.1,22.4c-2,11.3-1.9,22.8-2.5,34.3c-0.1,1.5,0.4,2.9,1.4,4.9
				c1.1-4.2,1.8-7.9,2.1-11.5c1.1-14.8,6.2-28.6,11.2-42.3c4.3-11.7,7.2-23.9,12.7-35.1c7.2-14.8,13.2-30.3,22.6-43.8
				c6.7-9.6,16-17,29.1-16.7c3.5,0.1,6.9-0.7,10.4-1.1c7.3-0.8,12.1,2.5,15.1,8.9c0.9,1.8,1.6,3.7,1.8,5.7
				c1.2,14.6,2.6,29.2-2.9,43.4c-4.2,11-6.9,22.6-11.4,33.5c-1.6,4-2.9,8.3-0.2,12.5c2.1,3.3,3.9,3.5,5.9,0.4
				c4.5-7,9.3-13.7,13.1-21.2c5-9.9,10.8-19.3,19.6-26.7c4.5-3.8,8.4-8.4,13.8-11.3c12.3-6.6,26.6-4.3,35.6,6.1
				c8.6,9.9,16.4,20.5,17.7,33.9c1,10.8,2,21.9-1.5,32.6c-8.2,25.3-21.6,47.8-39.4,67.6c-7.1,7.9-14.2,15.9-21.6,23.5
				c-20.9,21.6-45.8,37.8-71.7,52.7c-28.4,16.4-57.3,31.9-85.9,47.7c-1.2,0.6-2.4,1.2-3.6,1.7c-6.6,2.6-6.6,2.6-4.3,9.3
				c0,0.5-0.2,1-0.6,1.4c-51,0-102,0-153,0.1c-3.2,0-3.8-0.8-3.8-3.9c0.1-68.3,0.1-136.5,0.1-204.8c0.4-0.4,0.9-0.5,1.5-0.4
				c3,2.5,2.6,6.3,3.8,9.5c8.2,21.4,20.4,40.2,34.1,58.4c8,10.6,16.2,21.2,26,30.2c14.3,13,30.8,22.5,49.9,27
				c16.6,3.9,33.4,5.3,50.3,5.9c8.6,0.3,17.2,1.4,25.8-0.1c15.7-2.7,30.7-7.5,44.6-15.3c4.8-2.7,9.6-5.3,14.3-8.2
				c4.7-2.9,9-6.2,12.9-10.1c8.7-8.9,18.5-16.8,25.4-27.4c0.7-1.1,2.7-2.2,1.4-3.7c-1.1-1.2-2.9-0.3-4.2,0.4
				c-3.6,2.1-7.2,4.1-10.2,7c-12.7,12.3-27.8,21-43.9,28c-7.8,3.4-15.4,7.1-23.7,9.3c-15,4-30.2,4.6-45.5,2.7
				c-12-1.5-24.1-1.9-36-4.7c-17.4-4.1-33.2-11.8-46.2-23.5c-19.4-17.4-35.3-38-47.3-61.3c-6.4-12.5-9.9-26.2-8.9-40
				c2-30.1,13.9-55.4,42.9-68.5c12.1-5.5,24.9-10.5,38.9-9.4c4.5,0.4,9,0.1,13.5,0c17.2-0.3,32.3,5.2,45.2,16.6
				c2.7,2.3,5.6,2.8,8.8,2c5.2-1.4,7-6.5,3.9-10.9c-1-1.4-2.2-2.4-3.6-3.5c-10.2-7.9-21.5-13.8-32.9-19.7c-6.5-3.4-14-3.5-21-3.5
				c-13.1-0.1-26.2-1.2-39.4-1.3c-17.3-0.2-31.6,6.8-44.6,17.3c-18.2,14.7-28.1,34.2-32,56.9c-1.2,6.9-0.1,13.9-1.5,20.9
				c-0.3,1.5-0.1,3-1,4.3C69.6,237.1,69.1,237.2,68.6,236.9z"/>
			<path class="st1" d="M68.6,236.9c0.3,0,0.6,0,1,0c2.5,4.9,2.2,9.9,0.3,14.9c-0.4,0-0.8,0.1-1.2,0.1
				C68.6,246.8,68.6,241.9,68.6,236.9z"/>
			<path class="st2" d="M225.3,460.4c0-0.4,0.1-0.8,0.1-1.2c3.9-1.7,7.8-1.8,11.9-0.7c-0.3,0.7-0.7,1.3-1,2
				C232.6,460.4,229,460.4,225.3,460.4z"/>
			<path d="M237.3,458.4c-3.9,1.3-7.9,0.8-11.9,0.7c-0.6-0.8-1.3-1.5-1.8-2.4c-2.7-5-2.5-5.3,2.9-7.2c7.3-2.5,13.8-6.6,20.4-10.3
				c29.4-16.3,58.9-32.3,87.9-49.3c25.6-15,48.3-33.9,67.8-56.5c7.9-9.2,16.5-17.8,23.4-27.7c11.3-16.1,21.4-33.3,25.8-52.4
				c3.5-15.3,3.8-31.6-5-46.3c-4.9-8.2-10.3-15.8-17.7-22c-2.3-1.9-4.6-2.7-7.6-3.1c-11.4-1.4-21.3,1.4-29.6,9.3
				c-10.3,9.9-19.2,20.7-25.1,33.8c-3.2,7.2-8.3,13.2-12.3,19.9c-2.2,3.8-5.4,3.4-7.5-0.8c-2.2-4.4-2-8.9-0.4-13.5
				c4.6-13.3,9.6-26.5,13.4-40c3.7-13,3.6-26.6,0.5-39.8c-2.1-9-7.8-12-17.3-10.5c-4.3,0.6-8.5,1-12.8,0.8c-2-0.1-4.1,1-6,1.9
				c-8.1,4-15.3,9.3-19.6,17.6c-11,21.4-22.5,42.6-29.5,65.9c-3.5,11.5-8.1,22.8-11.3,34.4c-2.7,9.5-3.4,19.6-5,29.4
				c-0.1,0.7-0.2,1.5-0.3,3.4c-2.9-4-4.2-7.3-4.1-11.1c0.3-20,3.6-39.5,8.5-58.9c4.9-19.2,9.9-38.3,17.8-56.5
				c7.5-17.5,18.8-31.6,36.2-40.4c7.6-3.8,15.5-5.8,23.6-6.2c11.8-0.6,23.6-1.1,35.4-0.3c8.3,0.6,12.5,5.9,15.2,12.5
				c3.8,9.4,5.6,19.4,4.7,29.8c14.5-2.5,28.5-5.4,43-5.1c12.1,0.2,21.1,5.8,27.3,15.4c12.7,19.6,18.6,41.2,18.3,64.6
				c-0.2,10.3-3.3,20.1-7.3,29.3c-5.9,13.8-13,27.1-19.7,40.6c-1.3,2.7-3.3,5-5.4,7.1c-7.1,7.3-13.8,14.7-19,23.6
				c-3.3,5.7-8.6,10-13.9,14.1c-4.3,3.3-9.4,5.6-12.9,10.1c-0.7,0.9-1.8,1.6-2.9,1.9c-8.4,2.1-14.4,7.9-20.7,13.1
				c-16.6,13.8-34.8,25.1-53.5,35.7c-27.4,15.5-55.3,30.1-84.1,42.8C242.7,457,239.9,457.5,237.3,458.4z"/>
			<path d="M69.8,251.7c-0.1-5-0.2-9.9-0.3-14.9c1.2-10.1,0.5-20.2,2.5-30.3c5.7-27.3,20.4-48,44.5-62c10.4-6,21.6-9.3,33.8-8.6
				c14.3,0.8,28.6,1.4,42.9,1.5c10.5,0,19.1,4.7,28,9.4c7.5,3.9,14.4,8.8,21.4,13.6c1.6,1.1,3.1,2.5,4.3,4.1c3.4,4.5,2.9,8-1.6,11.9
				c-3.3,2.8-9.5,2.5-12.5-0.8c-8.2-8.8-19-13.1-30.1-15.2c-25.4-4.8-50.4-2.4-73,11.2c-16.7,10.1-29.1,24-32.3,44.4
				c-1.1,6.7-4,13.1-3.8,20c0.7,18.4,5.2,35.7,15.5,51.1c11,16.4,22.7,32.4,37.3,45.9c13.9,12.7,29.9,21.7,48.5,25.7
				c19.6,4.3,39.4,5.9,59.3,5.9c14.8,0,28.4-5.6,41.8-11.3c18.3-7.8,35.2-17.7,49.7-31.6c4-3.8,9.1-7.7,16.9-5.9
				c-5.2,6.7-9.3,13.8-15.1,19c-7.6,6.9-13.9,15.2-22.5,21.1c-19.2,13.1-39.7,23.4-62.8,27.2c-15.8,2.6-31.8,1-47.7-0.7
				c-10.2-1.1-20.3-2.1-30.4-4.4c-15.9-3.6-29.7-11.2-42.6-20.4c-11.6-8.2-20.4-19.4-29.3-30.4c-11.1-13.9-21.1-28.4-29.7-44
				C77.2,273.3,72.2,263.1,69.8,251.7z"/>
		</g>
	</g>
</g>
</svg>
