<svg id="Layer_1" data-name="Layer 1" xmlns="http://www.w3.org/2000/svg" viewBox="0 0 540 540"><defs><style>.cls-1{fill:#fefefe;}.cls-2{fill:#ddd;}.cls-3{fill:#e0e0e0;}</style></defs><g id="Artboard_1" data-name="Artboard 1"><path class="cls-1" d="M68.58,236.86c0-38.41,0-76.83-.08-115.24,0-3,.6-3.58,3.58-3.58q205.15.15,410.32,0c3,0,3.58.6,3.57,3.58q-.14,167.63,0,335.26c0,3.66-1.41,3.54-4.1,3.54q-122.8-.09-245.59-.05c-.47-1.24.24-2,1.09-2.69,12.53-4.93,24.7-10.63,36.7-16.76,30.95-15.8,61.88-31.61,90.6-51.34,10-6.88,18.9-15.22,28.9-22.11a22.32,22.32,0,0,1,6.64-3.35,11.31,11.31,0,0,0,4.5-2.11c11.67-10,25.11-18.11,32.66-32.39,2.78-5.27,7.43-9.34,11.76-13.5a53.29,53.29,0,0,0,11.59-17.27c4-9,8.68-17.6,12.78-26.51,5.6-12.16,10.34-24.82,9.87-38.31-.64-18.2-4.08-35.83-13.61-52-4.64-7.87-8.84-15.54-17.42-19.81a26.34,26.34,0,0,0-10.91-2.95c-13.57-.59-26.86,1.62-40.14,3.82-5.65.94-6.65.46-6.5-5.29.17-6.44-1.53-12.52-2.78-18.69A24,24,0,0,0,387,128.39c-4.09-4.92-8.83-7.44-15.54-7.1-9.29.48-18.67-.37-27.93.35-23.95,1.87-42.41,12.86-54.75,33.86-13.19,22.44-19.2,47.28-25,72.22-1.74,7.45-3.81,14.81-5.12,22.35-2,11.35-1.85,22.83-2.46,34.26a9.64,9.64,0,0,0,1.45,4.94,60.62,60.62,0,0,0,2.08-11.49c1.12-14.8,6.19-28.62,11.2-42.3,4.29-11.69,7.21-23.89,12.71-35.12,7.24-14.77,13.18-30.33,22.59-43.81,6.7-9.59,16-17,29.08-16.68,3.52.09,7-.68,10.41-1.08,7.33-.85,12.09,2.46,15.12,8.87a16.72,16.72,0,0,1,1.76,5.69c1.16,14.59,2.6,29.22-2.85,43.36-4.24,11-6.9,22.57-11.37,33.52-1.62,4-2.88,8.26-.21,12.47,2.08,3.29,3.86,3.55,5.92.35,4.49-7,9.28-13.73,13.08-21.2,5-9.9,10.84-19.32,19.62-26.75,4.54-3.84,8.43-8.38,13.81-11.27,12.26-6.57,26.55-4.32,35.57,6.11,8.55,9.89,16.45,20.46,17.72,33.92,1,10.82,2,21.93-1.46,32.57A186.64,186.64,0,0,1,413,324c-7.11,7.91-14.19,15.86-21.58,23.5-20.89,21.61-45.79,37.8-71.68,52.73-28.39,16.36-57.25,31.85-85.93,47.69a30.37,30.37,0,0,1-3.61,1.69c-6.59,2.56-6.59,2.56-4.3,9.34a2.07,2.07,0,0,1-.57,1.42q-76.51,0-153,.08c-3.21,0-3.78-.83-3.78-3.85q.15-102.39.07-204.77a1.57,1.57,0,0,1,1.46-.38c3,2.47,2.57,6.33,3.78,9.51,8.16,21.35,20.45,40.24,34.11,58.36,8,10.63,16.18,21.22,26,30.17,14.31,13,30.75,22.53,49.87,27,16.57,3.87,33.36,5.29,50.32,5.88,8.64.3,17.2,1.39,25.84-.09A138.13,138.13,0,0,0,304.53,367c4.78-2.68,9.63-5.25,14.28-8.18a71.15,71.15,0,0,0,12.93-10.13c8.74-8.85,18.48-16.78,25.35-27.35.74-1.15,2.75-2.23,1.39-3.71-1.06-1.15-2.9-.31-4.18.44-3.58,2.09-7.2,4.1-10.24,7-12.73,12.32-27.82,21-43.92,28-7.77,3.37-15.45,7.08-23.66,9.28A117.77,117.77,0,0,1,231,365c-12-1.5-24.13-1.94-36-4.72-17.43-4.07-33.16-11.78-46.21-23.52a213.52,213.52,0,0,1-47.27-61.29c-6.44-12.52-9.87-26.23-8.94-40,2-30.11,13.87-55.37,42.91-68.48,12.08-5.45,24.87-10.52,38.89-9.38,4.46.36,9,.12,13.47,0A64.52,64.52,0,0,1,233,174.29a9,9,0,0,0,8.84,2c5.23-1.4,7-6.52,3.93-10.93a16.28,16.28,0,0,0-3.57-3.46C232,154,220.67,148,209.3,142.16c-6.55-3.37-14-3.49-21-3.53-13.14-.06-26.22-1.18-39.36-1.33-17.32-.21-31.63,6.77-44.58,17.26-18.15,14.71-28.14,34.17-32,56.95-1.16,6.87-.14,14-1.47,20.85-.27,1.45-.06,3-1,4.32A1,1,0,0,1,68.58,236.86Z"/><path class="cls-2" d="M68.58,236.86c.32,0,.64,0,1,0,2.53,4.92,2.22,9.88.26,14.88l-1.22.1Z"/><path class="cls-3" d="M225.32,460.37l.12-1.25a17.6,17.6,0,0,1,11.86-.74l-1,2Z"/><path d="M237.3,458.38c-3.88,1.29-7.89.81-11.86.74a20.23,20.23,0,0,1-1.75-2.41c-2.7-5-2.49-5.34,2.94-7.18,7.28-2.47,13.76-6.61,20.42-10.31,29.36-16.31,58.9-32.32,87.85-49.33a267.83,267.83,0,0,0,67.78-56.52c7.9-9.17,16.46-17.77,23.44-27.72,11.32-16.14,21.38-33.31,25.75-52.42,3.5-15.31,3.76-31.6-5-46.26-4.88-8.15-10.34-15.77-17.66-22a13.42,13.42,0,0,0-7.57-3.06c-11.37-1.42-21.29,1.36-29.59,9.32-10.27,9.86-19.24,20.72-25.14,33.84-3.22,7.17-8.34,13.15-12.27,19.88-2.23,3.83-5.41,3.41-7.48-.78-2.17-4.4-2-8.91-.39-13.5,4.57-13.3,9.57-26.49,13.39-40a78.92,78.92,0,0,0,.52-39.77c-2.14-9-7.78-11.95-17.33-10.54a64.61,64.61,0,0,1-12.82.81c-2-.1-4.12.95-6,1.88-8.15,4-15.35,9.33-19.59,17.59-11,21.44-22.5,42.6-29.52,65.94-3.46,11.51-8.08,22.78-11.31,34.38-2.66,9.53-3.4,19.6-5,29.43-.12.74-.16,1.49-.35,3.4-2.9-4-4.16-7.34-4.09-11.09.34-20,3.57-39.52,8.48-58.92,4.86-19.2,9.93-38.28,17.8-56.49,7.55-17.46,18.76-31.59,36.22-40.4a58.71,58.71,0,0,1,23.58-6.22c11.75-.61,23.56-1.08,35.38-.28,8.25.55,12.5,5.9,15.15,12.47A65,65,0,0,1,396,162.71c14.45-2.46,28.51-5.36,43-5.15,12.07.18,21.07,5.76,27.33,15.43a113.24,113.24,0,0,1,18.29,64.55c-.16,10.31-3.34,20-7.26,29.28-5.89,13.84-13,27.14-19.71,40.64a28.87,28.87,0,0,1-5.36,7.14c-7.05,7.27-13.79,14.71-19,23.58-3.34,5.73-8.62,10-13.93,14.07-4.35,3.3-9.41,5.65-12.91,10.06a5.75,5.75,0,0,1-2.89,1.88c-8.37,2.1-14.39,7.87-20.71,13.13-16.58,13.8-34.83,25.08-53.53,35.69C302,428.56,274,443.1,245.22,455.86A75.25,75.25,0,0,1,237.3,458.38Z"/><path d="M69.8,251.73l-.26-14.88c1.15-10,.46-20.22,2.53-30.25,5.67-27.3,20.39-48,44.47-62,10.42-6,21.59-9.26,33.85-8.6,14.28.78,28.58,1.44,42.88,1.49,10.52,0,19.14,4.73,27.95,9.35,7.52,3.95,14.45,8.82,21.4,13.65a19.46,19.46,0,0,1,4.3,4.1c3.41,4.5,2.86,8-1.61,11.9-3.28,2.84-9.47,2.48-12.51-.78-8.15-8.75-19-13.11-30.06-15.2-25.41-4.8-50.42-2.43-73,11.16-16.69,10.06-29.13,24.05-32.33,44.36-1.06,6.71-4,13.09-3.76,20,.66,18.4,5.21,35.71,15.54,51.11,11,16.44,22.71,32.44,37.35,45.91,13.85,12.75,29.9,21.68,48.49,25.74a276.22,276.22,0,0,0,59.35,5.91c14.81,0,28.38-5.6,41.79-11.32,18.3-7.81,35.21-17.65,49.72-31.59,4-3.81,9.15-7.71,16.92-5.92-5.23,6.72-9.34,13.75-15.09,19-7.6,6.92-13.93,15.21-22.5,21.08-19.17,13.13-39.7,23.39-62.78,27.23-15.81,2.62-31.83,1-47.66-.68-10.17-1.07-20.35-2.15-30.45-4.41-15.91-3.57-29.68-11.17-42.61-20.39-11.56-8.24-20.45-19.35-29.28-30.4a314.86,314.86,0,0,1-29.73-44C77.2,273.33,72.19,263.05,69.8,251.73Z"/></g></svg>