<?xml version="1.0" encoding="utf-8"?>
<!-- Generator: Adobe Illustrator 23.1.1, SVG Export Plug-In . SVG Version: 6.00 Build 0)  -->
<svg version="1.1" id="Layer_1" xmlns="http://www.w3.org/2000/svg" xmlns:xlink="http://www.w3.org/1999/xlink" x="0px" y="0px"
	 viewBox="0 0 16 16" style="enable-background:new 0 0 16 16;" xml:space="preserve">
<style type="text/css">
	.st0{fill:#59C9EF;stroke:#000000;stroke-width:0.288;stroke-miterlimit:10;}
	.st1{fill:#59C9EF;}
</style>
<g>
	<path class="st0" d="M13.9,10.3l-2.8-8.7C8.8,7.6,7,13.9,3.5,13.9c-1.7,0-2.5-1-2.5-2.7C1,9.6,2,9,3,9c0.5,0,0.9,0.3,0.9,1.1
		s-1.3,1-1.9,1c-0.3,0.9,0.9,1.6,1.7,1.6c1.1,0,2.1-1.1,2.1-2.1c0-1.6-1.3-2.2-2.7-2.2s-2.8,1.1-2.8,2.9c0,2,0.7,3.7,3.6,3.7
		c2.1,0,4-2.8,5.5-5.9c0.4-0.9,0.9-2,1.4-3.1l0.7,3.1l0.2,1.2c0.5,1.9-0.1,2.5-1.4,2.5v0.1H16v-0.1C14.9,12.9,14.5,12.1,13.9,10.3z"
		/>
	<polygon class="st0" points="8.9,10.2 11.5,10.2 11.3,9.4 9.3,9.4 	"/>
	<polygon class="st1" points="10.5,9.5 10.5,9.6 11,9.6 11,9.5 	"/>
	<polygon class="st1" points="12,9.5 11.9,10.1 8.2,10.1 8.5,9.5 	"/>
</g>
</svg>
