<?xml version="1.0" encoding="utf-8"?>
<!-- Generator: Adobe Illustrator 25.0.0, SVG Export Plug-In . SVG Version: 6.00 Build 0)  -->
<svg version="1.1" id="Layer_1" xmlns="http://www.w3.org/2000/svg" xmlns:xlink="http://www.w3.org/1999/xlink" x="0px" y="0px"
	 viewBox="0 0 72 72" style="enable-background:new 0 0 72 72;" xml:space="preserve">
<path d="M49.5,48.6h-9.3c-0.4,0-0.9-0.4-0.9-0.9V24.3c0-0.4,0.4-0.9,0.9-0.9h8.7c6.5,0,7.8,3.9,7.8,6.9c0,1.7-0.4,3.3-1.5,4.3
	c2.4,0.9,3.7,3.3,3.7,6.3C58.8,45.8,55.3,48.6,49.5,48.6L49.5,48.6z M36,48.6H16.7c-0.4,0-0.9-0.4-0.9-0.9V24.3
	c0-0.4,0.4-0.9,0.9-0.9h8.9c5.6,0,8.9,3,8.9,8c0,3.5-1.7,6.1-4.3,7.2l6.3,8.5C37.1,47.5,36.9,48.6,36,48.6L36,48.6z M36,1.3
	C16.9,1.3,1.3,16.9,1.3,36S16.9,70.7,36,70.7S70.7,55.1,70.7,36S55.1,1.3,36,1.3z"/>
</svg>
